<svg xmlns="http://www.w3.org/2000/svg" version="1.1" width="3300" height="2000"><g id="Notes"><style>
    text {
      font-family: monospace;
      text-anchor: middle;
    }
    text.emphasis {
      font-weight:bold;
    }
    text.lanchor {
      text-anchor: start;
    }
  </style><rect height="2200" id="artboard" fill="white" width="3300" x="0" y="0"/><line id="" style="fill:none;stroke:black;stroke-width:0.5;" x1="263" x2="3036" y1="292" y2="292"/><text class="lanchor emphasis" transform="matrix(1 0 0 1 263 322)">Weight/Scale Variations</text><text transform="matrix(1 0 0 1 559.711 322)">Ultralight</text><text transform="matrix(1 0 0 1 856.422 322)">Thin</text><text transform="matrix(1 0 0 1 1153.13 322)">Light</text><text transform="matrix(1 0 0 1 1449.84 322)">Regular</text><text transform="matrix(1 0 0 1 1746.56 322)">Medium</text><text transform="matrix(1 0 0 1 2043.27 322)">Semibold</text><text transform="matrix(1 0 0 1 2339.98 322)">Bold</text><text transform="matrix(1 0 0 1 2636.69 322)">Heavy</text><text transform="matrix(1 0 0 1 2933.4 322)">Black</text><text id="template-version" style="text-anchor: end;" transform="matrix(1 0 0 1 3036 1933)">Template v.1.0</text><text class="lanchor" transform="matrix(1 0 0 1 263 726)">Small</text><text class="lanchor" transform="matrix(1 0 0 1 263 1156)">Medium</text><text class="lanchor" transform="matrix(1 0 0 1 263 1586)">Large</text></g><g id="Guides"><g id="H-reference" style="fill:#27AAE1;stroke:none;" transform="matrix(1 0 0 1 339 696)"><path d="M 54.9316 0 L 57.666 0 L 30.5664 -70.459 L 28.0762 -70.459 L 0.976562 0 L 3.66211 0 L 12.9395 -24.4629 L 45.7031 -24.4629 Z M 29.1992 -67.0898 L 29.4434 -67.0898 L 44.8242 -26.709 L 13.8184 -26.709 Z"/></g><line id="Baseline-S" style="fill:none;stroke:#27AAE1;opacity:1;stroke-width:0.577;" x1="263" x2="3036" y1="696" y2="696"/><line id="Capline-S" style="fill:none;stroke:#27AAE1;opacity:1;stroke-width:0.577;" x1="263" x2="3036" y1="625.541" y2="625.541"/><g id="H-reference" style="fill:#27AAE1;stroke:none;" transform="matrix(1 0 0 1 339 1126)"><path d="M 54.9316 0 L 57.666 0 L 30.5664 -70.459 L 28.0762 -70.459 L 0.976562 0 L 3.66211 0 L 12.9395 -24.4629 L 45.7031 -24.4629 Z M 29.1992 -67.0898 L 29.4434 -67.0898 L 44.8242 -26.709 L 13.8184 -26.709 Z"/></g><line id="Baseline-M" style="fill:none;stroke:#27AAE1;opacity:1;stroke-width:0.577;" x1="263" x2="3036" y1="1126" y2="1126"/><line id="Capline-M" style="fill:none;stroke:#27AAE1;opacity:1;stroke-width:0.577;" x1="263" x2="3036" y1="1055.54" y2="1055.54"/><g id="H-reference" style="fill:#27AAE1;stroke:none;" transform="matrix(1 0 0 1 339 1556)"><path d="M 54.9316 0 L 57.666 0 L 30.5664 -70.459 L 28.0762 -70.459 L 0.976562 0 L 3.66211 0 L 12.9395 -24.4629 L 45.7031 -24.4629 Z M 29.1992 -67.0898 L 29.4434 -67.0898 L 44.8242 -26.709 L 13.8184 -26.709 Z"/></g><line id="Baseline-L" style="fill:none;stroke:#27AAE1;opacity:1;stroke-width:0.577;" x1="263" x2="3036" y1="1556" y2="1556"/><line id="Capline-L" style="fill:none;stroke:#27AAE1;opacity:1;stroke-width:0.577;" x1="263" x2="3036" y1="1485.54" y2="1485.54"/><rect height="119.336" id="left-margin" style="fill:darkred;stroke:none;opacity:0.4;" width="12.4512" x="1394.06" y="1030.79"/><rect height="119.336" id="right-margin" style="fill:darkgreen;stroke:none;opacity:0.4;" width="12.4512" x="1502.5112" y="1030.79"/><rect x="1406.5112" y="1045" width="96" height="96" fill="none" stroke="blue" stroke-dasharray="5"/><rect x="1394.06" y="1030.79" width="120.9024" height="119.336" fill="none" stroke="blue"/></g><g id="Symbols"><g id="Bold-L" transform="matrix(1 0 0 1 2266 1556)"><path d="M42.08625 33.46250000000002  67.72500000000001 -14.58999999999999  10.481250000000001 -21.684999999999988  99.33 -104.08374999999998 H112.71375 L86.43 -55.063749999999985 L144.1575 -48.12999999999998 L55.47 33.46250000000002 H42.08625 Z M73.8525 -1.6899999999999835  115.455 -38.77749999999999  67.24125000000001 -44.58249999999998  81.10875 -68.60874999999999  38.86125 -31.03749999999998  87.075 -25.071249999999992  73.8525 -1.6899999999999835 Z"/></g><g id="Semibold-L" transform="matrix(1 0 0 1 1970.27 1556)"><path d="M43.838876250000006 31.709873750000014  70.31886750000001 -16.973597499999983  14.336898750000001 -23.788183749999988  99.25985625000001 -102.26097999999999 H110.96112375 L84.11654625 -53.03071 L140.37183375 -46.30722999999999 L55.54014375 31.709873750000014 H43.838876250000006 Z M73.50194250000001 -1.2692987499999902  114.6839025 -37.86611499999999  66.61027875 -43.671114999999986  81.38916375 -69.09943374999999  39.772635 -32.159154999999984  87.84609750000001 -26.333192499999996  73.50194250000001 -1.2692987499999902 Z"/></g><g id="Medium-L" transform="matrix(1 0 0 1 1674.31 1556)"><path d="M45.1535475 30.395202500000014  72.26451 -18.76137624999999  17.22924 -25.365692499999994  99.20728875 -100.8939025 H109.6464525 L82.38117375 -51.50576874999997 L137.53222125 -44.94015249999998 L55.59271125000001 30.395202500000014 H45.1535475 Z M73.23910500000001 -0.9538937499999847  114.1053375 -37.18257624999998  66.13701 -42.98757624999999  81.59943375 -69.46756749999999  40.45617375 -33.000557499999985  88.4246625 -27.279729999999986  73.23910500000001 -0.9538937499999847 Z"/></g><g id="Regular-L" transform="matrix(1 0 0 1 1378.56 1556)"><path d="M46.1175 29.431250000000016  73.69125 -20.072499999999984  19.35 -26.52249999999998  99.16875 -99.89124999999999 H108.6825 L81.10875 -50.38749999999999 L135.45000000000002 -43.937499999999986 L55.63125 29.431250000000016 H46.1175 Z M73.04625 -0.7224999999999824  113.68125 -36.68124999999999  65.79 -42.486249999999984  81.75375 -69.73749999999998  40.9575 -33.61749999999999  88.84875 -27.97374999999998  73.04625 -0.7224999999999824 Z"/></g><g id="Light-L" transform="matrix(1 0 0 1 1082.77 1556)"><path d="M48.040245 26.206088750000013  75.24183 -21.436997499999983  22.57516125 -27.57691374999999  99.3548325 -96.66608875 H106.88375625 L79.3720875 -48.960921249999984 L132.22483875 -42.88308624999999 L55.50724875 26.206088750000013 H48.040245 Z M68.5805925 3.681237500000016  115.47999375 -37.36349874999999  67.65066375 -42.920496249999985  86.34357000000001 -74.32732  39.2208375 -33.059252499999985  86.98808625000001 -27.415502499999988  68.5805925 3.681237500000016 Z"/></g><g id="Thin-L" transform="matrix(1 0 0 1 787.282 1556)"><path d="M49.9626675 22.981250000000017  76.79224875 -22.801333749999984  25.8 -28.631166249999993  99.540915 -93.44125 H105.085335 L77.6357475 -47.53466499999999 L129.0 -41.82883374999999 L55.3832475 22.981250000000017 H49.9626675 Z M64.11558 8.084168750000018  117.278415 -38.045586249999985  69.51116625 -43.35458124999998  90.93258375 -78.91633374999999  37.484497499999996 -32.50116624999998  85.12758375 -26.857416249999986  64.11558 8.084168750000018 Z"/></g><g id="Ultralight-L" transform="matrix(1 0 0 1 491.205 1556)"><path d="M51.11625 21.046250000000015  77.7225 -23.61999999999999  27.735 -29.263749999999987  99.6525 -91.50625 H104.00625000000001 L76.59375 -46.67874999999998 L127.065 -41.19624999999999 L55.30875 21.046250000000015 H51.11625 Z M61.43625 10.726250000000014  118.3575 -38.454999999999984  70.6275 -43.61499999999998  93.68625 -81.66999999999999  36.4425 -32.16624999999999  84.01125 -26.52249999999998  61.43625 10.726250000000014 Z"/></g><g id="Bold-M" transform="matrix(1 0 0 1 2281.8 1126)"><path d="M30.875 19.02000000000001  48.875 -16.97999999999999  5.75 -22.72999999999999  75.125 -89.47999999999999 H89.125 L70.5 -52.60499999999999 L114.0 -47.10499999999999 L44.875 19.02000000000001 H30.875 Z M63.5 -17.10499999999999  84.625 -37.47999999999999  50.75 -41.72999999999999  56.375 -53.10499999999999  35.0 -32.22999999999999  68.75 -27.85499999999999  63.5 -17.10499999999999 Z"/></g><g id="Semibold-M" transform="matrix(1 0 0 1 1985.97 1126)"><path d="M32.668375 17.172250000000012  51.537875 -19.479874999999993  9.7715 -24.903749999999988  75.070625 -87.63224999999998 H87.331625 L68.108875 -50.485624999999985 L110.08725 -45.20299999999999 L44.929375 17.172250000000012 H32.668375 Z M63.173875 -16.67024999999999  83.864125 -36.55612499999999  50.097875 -40.806124999999994  56.701125 -53.59412499999999  35.923875 -33.42562499999999  69.565125 -29.159249999999993  63.173875 -16.67024999999999 Z"/></g><g id="Medium-M" transform="matrix(1 0 0 1 1689.91 1126)"><path d="M34.013625 15.78637500000001  53.53525 -21.35499999999999  12.788 -26.53437499999999  75.029875 -86.24637499999999 H85.986375 L66.31525 -48.89574999999999 L107.15225 -43.77624999999999 L44.970125 15.78637500000001 H34.013625 Z M62.929375 -16.34412499999999  83.2935 -35.86312499999999  49.60875 -40.113125  56.945625 -53.960999999999984  36.616875 -34.32237499999999  70.176625 -30.137624999999993  62.929375 -16.34412499999999 Z"/></g><g id="Regular-M" transform="matrix(1 0 0 1 1394.06 1126)"><path d="M35.0 14.77000000000001  55.0 -22.72999999999999  15.0 -27.72999999999999  75.0 -85.22999999999999 H85.0 L65.0 -47.72999999999999 L105.0 -42.72999999999999 L45.0 14.77000000000001 H35.0 Z M62.75 -16.10499999999999  82.875 -35.35499999999999  49.25 -39.60499999999999  57.125 -54.22999999999999  37.125 -34.97999999999999  70.625 -30.85499999999999  62.75 -16.10499999999999 Z"/></g><g id="Light-M" transform="matrix(1 0 0 1 1098.18 1126)"><path d="M36.682875 12.31787500000001  56.779 -23.980124999999987  17.500125 -28.739749999999987  75.625 -82.777875 H83.413375 L63.07675 -46.43187499999999 L102.499875 -41.72024999999999 L44.375 12.31787500000001 H36.682875 Z M57.6535 -10.623874999999991  85.663625 -36.17237499999999  51.17325 -40.27812499999999  62.36575 -59.855374999999995  34.336375 -34.25874999999999  68.70175 -30.08574999999999  57.6535 -10.623874999999991 Z"/></g><g id="Thin-M" transform="matrix(1 0 0 1 802.565 1126)"><path d="M38.365375 9.866125000000011  58.557625 -25.22999999999999  20.0 -29.74924999999999  76.25 -80.32612499999999 H81.827 L61.153875 -45.13387499999999 L100.0 -40.71074999999999 L43.75 9.866125000000011 H38.365375 Z M52.55775 -5.143499999999989  88.451875 -36.98962499999999  53.096125 -40.95112499999999  67.60575 -65.47987499999999  31.548125 -33.53774999999999  66.778875 -29.31649999999999  52.55775 -5.143499999999989 Z"/></g><g id="Ultralight-M" transform="matrix(1 0 0 1 506.415 1126)"><path d="M39.375 8.39500000000001  59.625 -25.97999999999999  21.5 -30.35499999999999  76.625 -78.85499999999999 H80.875 L60.0 -44.35499999999999 L98.5 -40.10499999999999 L43.375 8.39500000000001 H39.375 Z M49.5 -1.8549999999999898  90.125 -37.47999999999999  54.25 -41.35499999999999  70.75 -68.85499999999999  29.875 -33.10499999999999  65.625 -28.85499999999999  49.5 -1.8549999999999898 Z"/></g><g id="Bold-S" transform="matrix(1 0 0 1 2294.23 696)"><path d="M25.149375000000003 5.995250000000014  37.773375 -21.22524999999999  6.9037500000000005 -26.550999999999988  59.273625 -76.45524999999999 H69.530625 L56.4135 -48.54437499999999 L87.57900000000001 -43.415874999999986 L35.406375000000004 5.995250000000014 H25.149375000000003 Z M46.9455 -18.266499999999986  66.571875 -36.90662499999999  42.606 -40.95024999999999  47.734500000000004 -52.09487499999999  27.812250000000002 -32.96162499999999  51.778125 -28.819374999999987  46.9455 -18.266499999999986 Z"/></g><g id="Semibold-S" transform="matrix(1 0 0 1 1998.1 696)"><path d="M26.564347875 4.5373752500000135  39.874383375 -23.197651374999992  10.0767135 -28.266088749999987  59.23072312500001 -74.99737524999999 H68.11565212500001 L54.526902375 -46.87218812499999 L84.49184025 -41.915196999999985 L35.449276875 4.5373752500000135 H26.564347875 Z M46.688187375000005 -17.923482249999985  65.971544625 -36.17768762499998  42.09147337500001 -40.22131262499999  47.991812625 -52.48079462499999  28.541187375000003 -33.90497312499999  52.421258625 -29.84842824999999  46.688187375000005 -17.923482249999985 Z"/></g><g id="Medium-S" transform="matrix(1 0 0 1 1701.85 696)"><path d="M27.625750125 3.443919875000013  41.45031225 -24.67712499999999  12.456732 -29.552651874999988  59.19857137500001 -73.90391987499999 H67.054249875 L53.11173225000001 -45.61777674999999 L82.17612525 -40.78949124999999 L35.48142862500001 3.443919875000013 H27.625750125 Z M46.495276875 -17.666169624999988  65.5213215 -35.63091062499999  41.70555375 -39.674535625  48.184723125000005 -52.77025899999998  29.087964375000002 -34.61250887499999  52.903732125000005 -30.62036612499999  46.495276875 -17.666169624999988 Z"/></g><g id="Regular-S" transform="matrix(1 0 0 1 1405.73 696)"><path d="M28.404 2.6420000000000137  42.606 -25.761999999999986  14.202 -30.495999999999988  59.175000000000004 -73.10199999999999 H66.276 L52.074000000000005 -44.697999999999986 L80.47800000000001 -39.96399999999999 L35.505 2.6420000000000137 H28.404 Z M46.353750000000005 -17.47749999999999  65.191125 -35.22999999999999  41.4225 -39.27362499999999  48.32625 -52.98249999999999  29.488875 -35.13137499999999  53.2575 -31.18637499999999  46.353750000000005 -17.47749999999999 Z"/></g><g id="Light-S" transform="matrix(1 0 0 1 1109.75 696)"><path d="M29.731788375000004 0.7072733750000122  44.009631000000006 -26.748348624999984  16.174598625 -31.292692749999986  59.668125 -71.167273375 H65.024152875 L50.55655575000001 -43.67377937499999 L78.505401375 -39.16730724999999 L35.011875 0.7072733750000122 H29.731788375000004 Z M42.332611500000006 -13.15289237499999  67.391350125 -35.87490887499999  42.93994425 -39.80472062499999  52.46120175000001 -57.42092087499999  27.288649874999997 -34.56230874999999  51.74005575 -30.579436749999985  42.332611500000006 -13.15289237499999 Z"/></g><g id="Thin-S" transform="matrix(1 0 0 1 814.015 696)"><path d="M31.059280875000002 -1.2271573749999867  45.412966125000004 -27.73449999999999  18.147000000000002 -32.089188249999985  60.16125 -69.23284262499999 H63.772503 L49.039407375 -42.64965737499999 L76.533 -38.37081174999999 L34.518750000000004 -1.2271573749999867 H31.059280875000002 Z M38.31206475 -8.828876499999986  69.591279375 -36.51971912499999  44.457092625 -40.33571762499999  56.59556175 -61.858651374999994  25.088720625 -33.993439749999986  50.222907375 -29.972498499999986  38.31206475 -8.828876499999986 Z"/></g><g id="Ultralight-S" transform="matrix(1 0 0 1 517.792 696)"><path d="M31.855875 -2.387874999999987  46.255125 -28.326249999999987  19.3305 -32.56712499999999  60.457125000000005 -68.07212499999999 H63.021375000000006 L48.129000000000005 -42.03512499999999 L75.3495 -37.89287499999999 L34.222875 -2.387874999999987 H31.855875 Z M35.8995 -6.234249999999989  70.911375 -36.90662499999999  45.3675 -40.65437499999999  59.076375000000006 -64.52162499999999  23.768625 -33.65199999999999  49.3125 -29.608374999999988  35.8995 -6.234249999999989 Z"/></g></g></svg>